<?xml version="1.0" encoding="utf-8"?>
<!-- Generator: Adobe Illustrator 23.0.3, SVG Export Plug-In . SVG Version: 6.00 Build 0)  -->
<svg version="1.1" id="Capa_1" xmlns="http://www.w3.org/2000/svg" xmlns:xlink="http://www.w3.org/1999/xlink" x="0px" y="0px"
	 viewBox="0 0 36 36" style="enable-background:new 0 0 36 36;" xml:space="preserve">
<style type="text/css">
	.st0{fill:#FFFFFF;}
	.st1{fill:none;}
</style>
<g>
	<path class="st0" d="M18,12.3c1.5,0,2.6,1.2,2.6,2.6s-1.2,2.6-2.6,2.6s-2.6-1.2-2.6-2.6S16.5,12.3,18,12.3L18,12.3z M18,11
		c-2.1,0-3.9,1.7-3.9,3.9s1.7,3.9,3.9,3.9c2.1,0,3.9-1.7,3.9-3.9S20.1,11,18,11L18,11z"/>
	<g>
		<path class="st0" d="M24.7,23.2c-0.2-0.4-0.5-0.8-0.8-1.1c-0.8-0.9-1.7-1.6-2.8-2c-0.3-0.2-0.7-0.3-1.1-0.4
			c-0.6-0.2-1.3-0.3-2-0.3s-1.3,0.1-2,0.3c-0.4,0.1-0.7,0.2-1.1,0.4c-1.1,0.5-2.1,1.2-2.8,2c-0.3,0.3-0.6,0.7-0.8,1.1
			c-0.6,1-1,2.1-1.1,3.3c0,0.4,0.3,0.7,0.6,0.7h14.2c0.4,0,0.7-0.3,0.6-0.7C25.6,25.3,25.3,24.2,24.7,23.2z M11.9,25.7
			c0.2-0.8,0.6-1.6,1.1-2.3c0.1-0.2,0.3-0.4,0.5-0.6c0.2-0.2,0.4-0.3,0.5-0.5c0.5-0.4,1-0.7,1.5-0.9c0.3-0.1,0.7-0.2,1-0.3
			c0.4-0.1,0.9-0.2,1.4-0.2s0.9,0,1.4,0.2c0.4,0.1,0.7,0.2,1,0.3c0.6,0.2,1.1,0.6,1.5,0.9c0.1,0.1,0.3,0.3,0.5,0.5
			c0.2,0.2,0.4,0.4,0.5,0.6c0.5,0.7,0.9,1.4,1.1,2.3H11.9z"/>
		<g>
			<g>
				<path class="st0" d="M32.8,22.6c0,0.3-0.2,0.6-0.6,0.6h-6.7c-0.1-0.1-0.1-0.3-0.2-0.4c-0.1-0.2-0.3-0.5-0.5-0.7h6.5
					c0.2,0,0.3-0.2,0.3-0.3c-0.3-1-0.8-1.9-1.5-2.7c-1.1-1.1-2.6-1.7-4.1-1.7s-3,0.6-4.1,1.7c-0.1,0.1-0.2,0.2-0.3,0.4
					c-0.1,0-0.1-0.1-0.2-0.1c-0.3-0.1-0.6-0.2-0.9-0.3c1.3-1.7,3.3-2.8,5.5-2.8C29.5,16.3,32.5,19.1,32.8,22.6z"/>
				<path class="st0" d="M25.9,9.9c1.3,0,2.3,1.1,2.3,2.3s-1.1,2.3-2.3,2.3s-2.3-1.1-2.3-2.3S24.6,9.9,25.9,9.9L25.9,9.9z M25.9,8.8
					c-1.9,0-3.5,1.5-3.5,3.5s1.5,3.5,3.5,3.5c1.9,0,3.5-1.5,3.5-3.5S27.8,8.8,25.9,8.8L25.9,8.8z"/>
			</g>
			<g>
				<path class="st0" d="M15.6,19c-0.3,0.1-0.6,0.2-0.9,0.3c-0.1,0-0.1,0-0.1,0.1c-0.1-0.1-0.2-0.2-0.3-0.4
					c-1.1-1.1-2.6-1.7-4.1-1.7S7.1,18,6,19.1c-0.7,0.7-1.3,1.7-1.5,2.7c0,0.2,0.1,0.3,0.3,0.3h6.5c-0.2,0.2-0.3,0.5-0.5,0.7
					c-0.1,0.1-0.1,0.2-0.2,0.4H3.8c-0.3,0-0.6-0.3-0.6-0.6c0.3-3.5,3.3-6.3,6.9-6.3C12.3,16.3,14.3,17.4,15.6,19z"/>
				<path class="st0" d="M10.1,9.9c1.3,0,2.3,1.1,2.3,2.3s-1.1,2.3-2.3,2.3s-2.3-1.1-2.3-2.3S8.8,9.9,10.1,9.9L10.1,9.9z M10.1,8.8
					c-1.9,0-3.5,1.5-3.5,3.5s1.5,3.5,3.5,3.5c1.9,0,3.5-1.5,3.5-3.5S12,8.8,10.1,8.8L10.1,8.8z"/>
			</g>
		</g>
	</g>
</g>
<g>
	<rect class="st1" width="36" height="36"/>
</g>
</svg>
