<?xml version="1.0" encoding="utf-8"?>
<!-- Generator: Adobe Illustrator 23.0.3, SVG Export Plug-In . SVG Version: 6.00 Build 0)  -->
<svg version="1.1" id="Capa_1" xmlns="http://www.w3.org/2000/svg" xmlns:xlink="http://www.w3.org/1999/xlink" x="0px" y="0px"
	 viewBox="0 0 36 36" style="enable-background:new 0 0 36 36;" xml:space="preserve">
<style type="text/css">
	.st0{fill:#FFFFFF;}
	.st1{fill:none;}
</style>
<g>
	<g>
		<path class="st0" d="M13,6.1c2.9,0,5.2,2.3,5.2,5.2s-2.3,5.2-5.2,5.2s-5.2-2.3-5.2-5.2S10.2,6.1,13,6.1 M13,4
			c-4,0-7.3,3.2-7.3,7.3S9,18.5,13,18.5s7.3-3.2,7.3-7.3S17,4,13,4L13,4z"/>
		<g>
			<path class="st0" d="M29.9,27.4l-4.3,4.3c-0.2,0.2-0.5,0.2-0.7,0l-0.8-0.8c-0.2-0.2-0.2-0.5,0-0.7l3-3c0.1-0.1,0.1-0.2,0-0.3
				l-9-9c0.6-0.4,1-0.9,1.5-1.5l10.3,10.3C30.1,26.9,30.1,27.2,29.9,27.4z"/>
		</g>
		<g>
			<path class="st0" d="M20.6,28.1l-0.8-0.8c-0.2-0.2-0.2-0.5,0-0.7l2.8-2.8l1.5,1.5l-2.8,2.8C21.1,28.3,20.8,28.3,20.6,28.1z"/>
		</g>
	</g>
	<rect class="st1" width="36" height="36"/>
</g>
</svg>
