<svg xmlns="http://www.w3.org/2000/svg" width="333.945" height="103.341" viewBox="0 0 333.945 103.341">
  <g id="Grupo_163" data-name="Grupo 163" transform="translate(-123.31 -128.28)">
    <g id="Grupo_162" data-name="Grupo 162" transform="translate(123.31 128.28)">
      <g id="Grupo_158" data-name="Grupo 158" transform="translate(0 0)">
        <ellipse id="Elipse_117" data-name="Elipse 117" cx="13.173" cy="13.173" rx="13.173" ry="13.173" transform="translate(54.485 27.396)" fill="#fff"/>
        <path id="Trazado_182" data-name="Trazado 182" d="M180.649,128.28a50.194,50.194,0,0,0-44.93,72.537L123.31,212.212l17.815,19.409L153.24,220.5a50.181,50.181,0,1,0,27.409-92.218Zm.123,88.938a38.391,38.391,0,0,1-18.7-4.826l21.108-19.378L165.36,173.605,144.734,192.54a38.641,38.641,0,1,1,36.038,24.678Z" transform="translate(-123.31 -128.28)" fill="#fff"/>
      </g>
      <g id="Grupo_159" data-name="Grupo 159" transform="translate(121.352 29.05)">
        <path id="Trazado_183" data-name="Trazado 183" d="M419.6,210.085c-.17-3.2-.374-7.042-.34-9.9h-.1c-.783,2.687-1.735,5.545-2.892,8.708l-4.048,11.124h-2.245l-3.708-10.92c-1.089-3.232-2.007-6.191-2.654-8.913h-.068c-.068,2.857-.238,6.7-.442,10.137l-.613,9.831h-2.824l1.6-22.928h3.776l3.912,11.09c.952,2.823,1.735,5.341,2.313,7.722h.1c.578-2.313,1.395-4.831,2.416-7.722l4.082-11.09h3.776l1.428,22.928H420.18Z" transform="translate(-399.667 -196.001)" fill="#fff"/>
        <path id="Trazado_184" data-name="Trazado 184" d="M461.247,220.244c.068,4.048,2.654,5.715,5.647,5.715a10.821,10.821,0,0,0,4.558-.851l.51,2.143a13.331,13.331,0,0,1-5.477,1.021c-5.069,0-8.1-3.334-8.1-8.3s2.926-8.879,7.722-8.879c5.375,0,6.8,4.729,6.8,7.756a11.269,11.269,0,0,1-.1,1.4Zm8.777-2.143c.034-1.9-.782-4.865-4.15-4.865-3.028,0-4.354,2.789-4.593,4.865Z" transform="translate(-432.603 -203.779)" fill="#fff"/>
        <path id="Trazado_185" data-name="Trazado 185" d="M497.26,216.6c0-1.939-.034-3.606-.136-5.137h2.62l.1,3.232h.136a4.94,4.94,0,0,1,4.558-3.606,3.257,3.257,0,0,1,.851.1v2.824a4.494,4.494,0,0,0-1.021-.1c-2.109,0-3.606,1.6-4.014,3.844a8.433,8.433,0,0,0-.136,1.4v8.777h-2.96Z" transform="translate(-454.329 -203.779)" fill="#fff"/>
        <path id="Trazado_186" data-name="Trazado 186" d="M529.729,227.364a11.026,11.026,0,0,1-4.729.952c-4.967,0-8.2-3.368-8.2-8.4,0-5.069,3.47-8.743,8.845-8.743a10.011,10.011,0,0,1,4.15.85l-.68,2.313a6.946,6.946,0,0,0-3.47-.783c-3.776,0-5.817,2.79-5.817,6.226,0,3.81,2.449,6.157,5.715,6.157a8.506,8.506,0,0,0,3.674-.816Z" transform="translate(-465.366 -203.823)" fill="#fff"/>
        <path id="Trazado_187" data-name="Trazado 187" d="M559.208,227.932l-.238-2.075h-.1a6.132,6.132,0,0,1-5.034,2.449,4.691,4.691,0,0,1-5.035-4.728c0-3.98,3.538-6.157,9.9-6.123v-.34c0-1.36-.374-3.81-3.742-3.81a8.2,8.2,0,0,0-4.286,1.224l-.681-1.973a10.221,10.221,0,0,1,5.409-1.463c5.034,0,6.259,3.436,6.259,6.736v6.158a23.18,23.18,0,0,0,.272,3.946Zm-.442-8.4c-3.266-.068-6.974.51-6.974,3.708a2.649,2.649,0,0,0,2.824,2.858,4.1,4.1,0,0,0,3.98-2.756,3.117,3.117,0,0,0,.17-.952Z" transform="translate(-483.313 -203.779)" fill="#fff"/>
        <path id="Trazado_188" data-name="Trazado 188" d="M599.3,194.437v19.9c0,1.463.034,3.13.136,4.252h-2.688l-.136-2.857h-.068a6.09,6.09,0,0,1-5.613,3.231c-3.981,0-7.042-3.368-7.042-8.368-.034-5.477,3.368-8.845,7.382-8.845a5.5,5.5,0,0,1,4.966,2.517h.068v-9.831Zm-2.994,14.39a5.292,5.292,0,0,0-.136-1.258,4.4,4.4,0,0,0-4.321-3.47c-3.1,0-4.933,2.722-4.933,6.361,0,3.334,1.633,6.09,4.865,6.09a4.5,4.5,0,0,0,4.388-3.572,5.206,5.206,0,0,0,.136-1.292Z" transform="translate(-502.996 -194.437)" fill="#fff"/>
        <path id="Trazado_189" data-name="Trazado 189" d="M627.964,220.244c.068,4.048,2.654,5.715,5.647,5.715a10.824,10.824,0,0,0,4.558-.851l.51,2.143a13.335,13.335,0,0,1-5.477,1.021c-5.068,0-8.1-3.334-8.1-8.3s2.925-8.879,7.722-8.879c5.375,0,6.8,4.729,6.8,7.756a11.226,11.226,0,0,1-.1,1.4Zm8.777-2.143c.034-1.9-.782-4.865-4.151-4.865-3.028,0-4.354,2.789-4.593,4.865Z" transform="translate(-526.113 -203.779)" fill="#fff"/>
        <path id="Trazado_190" data-name="Trazado 190" d="M677.531,219.563c0,6.09-4.219,8.743-8.2,8.743-4.456,0-7.892-3.266-7.892-8.471,0-5.511,3.606-8.743,8.164-8.743C674.333,211.093,677.531,214.529,677.531,219.563Zm-13.063.17c0,3.606,2.075,6.327,5,6.327,2.858,0,5-2.687,5-6.4,0-2.79-1.4-6.328-4.933-6.328S664.468,216.6,664.468,219.734Z" transform="translate(-546.492 -203.779)" fill="#fff"/>
      </g>
      <g id="Grupo_160" data-name="Grupo 160" transform="translate(252.368 29.102)">
        <path id="Trazado_191" data-name="Trazado 191" d="M701.23,212.063l3.232,9.253a42.272,42.272,0,0,1,1.327,4.218h.1c.375-1.36.851-2.721,1.4-4.218l3.2-9.253h3.13l-6.464,16.465h-2.857l-6.26-16.465Z" transform="translate(-698.032 -204.375)" fill="#fff"/>
        <path id="Trazado_192" data-name="Trazado 192" d="M740.32,199.137a1.854,1.854,0,0,1-3.708,0,1.824,1.824,0,0,1,1.871-1.871A1.777,1.777,0,0,1,740.32,199.137Zm-3.334,21.092V203.764h2.994v16.465Z" transform="translate(-719.671 -196.075)" fill="#fff"/>
        <path id="Trazado_193" data-name="Trazado 193" d="M752.939,216.721c0-1.939-.034-3.606-.136-5.137h2.619l.1,3.231h.136a4.94,4.94,0,0,1,4.558-3.606,3.23,3.23,0,0,1,.85.1v2.824a4.492,4.492,0,0,0-1.02-.1c-2.109,0-3.606,1.6-4.015,3.844a8.468,8.468,0,0,0-.136,1.395v8.777h-2.96Z" transform="translate(-728.752 -203.896)" fill="#fff"/>
        <path id="Trazado_194" data-name="Trazado 194" d="M779.041,201.294v4.729h4.286V208.3h-4.286v8.879c0,2.041.578,3.2,2.245,3.2a6.666,6.666,0,0,0,1.735-.2l.136,2.245a7.333,7.333,0,0,1-2.654.408,4.148,4.148,0,0,1-3.231-1.259c-.851-.884-1.157-2.347-1.157-4.286V208.3h-2.551v-2.279h2.551v-3.946Z" transform="translate(-740.397 -198.334)" fill="#fff"/>
        <path id="Trazado_195" data-name="Trazado 195" d="M814.636,224.038c0,1.7.034,3.2.136,4.49h-2.654l-.17-2.688h-.068a6.2,6.2,0,0,1-5.443,3.062c-2.585,0-5.681-1.429-5.681-7.212v-9.627h2.994v9.117c0,3.13.952,5.239,3.674,5.239a4.328,4.328,0,0,0,3.946-2.722,4.381,4.381,0,0,0,.272-1.531v-10.1h2.993Z" transform="translate(-755.648 -204.375)" fill="#fff"/>
        <path id="Trazado_196" data-name="Trazado 196" d="M848.661,228.05l-.237-2.075h-.1a6.133,6.133,0,0,1-5.035,2.449,4.691,4.691,0,0,1-5.035-4.728c0-3.981,3.538-6.158,9.9-6.123v-.34c0-1.361-.374-3.81-3.742-3.81a8.205,8.205,0,0,0-4.286,1.225l-.68-1.973a10.22,10.22,0,0,1,5.409-1.463c5.034,0,6.26,3.436,6.26,6.736V224.1a23.183,23.183,0,0,0,.272,3.946Zm-.442-8.4c-3.266-.068-6.974.511-6.974,3.708a2.649,2.649,0,0,0,2.824,2.857,4.1,4.1,0,0,0,3.98-2.755,3.127,3.127,0,0,0,.17-.952Z" transform="translate(-776.679 -203.896)" fill="#fff"/>
        <path id="Trazado_197" data-name="Trazado 197" d="M876.057,194.554h2.994v24.153h-2.994Z" transform="translate(-797.884 -194.554)" fill="#fff"/>
      </g>
      <g id="Grupo_161" data-name="Grupo 161" transform="translate(120.52 55.41)">
        <path id="Trazado_198" data-name="Trazado 198" d="M399.311,256.36v11.923h-1.539V256.36Z" transform="translate(-397.772 -255.529)" fill="#fff"/>
        <path id="Trazado_199" data-name="Trazado 199" d="M411.9,266.084c0-.885-.018-1.61-.071-2.318h1.38l.088,1.415h.036a3.148,3.148,0,0,1,2.83-1.609c1.185,0,3.025.707,3.025,3.644v5.112h-1.557v-4.935c0-1.38-.513-2.53-1.981-2.53a2.212,2.212,0,0,0-2.088,1.592,2.237,2.237,0,0,0-.106.725v5.148H411.9Z" transform="translate(-405.658 -259.574)" fill="#fff"/>
        <path id="Trazado_200" data-name="Trazado 200" d="M437.487,267.221v-7.376h-1.2v-1.186h1.2v-.407a4.037,4.037,0,0,1,.99-2.989,2.98,2.98,0,0,1,2.088-.8,3.607,3.607,0,0,1,1.327.248l-.212,1.2a2.332,2.332,0,0,0-.991-.194c-1.327,0-1.663,1.167-1.663,2.476v.46h2.07v1.186h-2.07v7.376Z" transform="translate(-419.373 -254.467)" fill="#fff"/>
        <path id="Trazado_201" data-name="Trazado 201" d="M461.169,267.976a4.184,4.184,0,0,1-4.263,4.546,4.07,4.07,0,0,1-4.1-4.4,4.18,4.18,0,0,1,4.245-4.546C459.506,263.572,461.169,265.358,461.169,267.976Zm-6.793.088c0,1.875,1.079,3.29,2.6,3.29,1.485,0,2.6-1.4,2.6-3.326,0-1.45-.725-3.29-2.565-3.29S454.376,266.437,454.376,268.065Z" transform="translate(-428.638 -259.574)" fill="#fff"/>
        <path id="Trazado_202" data-name="Trazado 202" d="M480.548,266.437c0-1.008-.018-1.875-.071-2.671h1.363l.053,1.68h.071a2.569,2.569,0,0,1,2.37-1.875,1.681,1.681,0,0,1,.443.053v1.468a2.328,2.328,0,0,0-.531-.053,2.184,2.184,0,0,0-2.088,2,4.413,4.413,0,0,0-.071.725v4.564h-1.539Z" transform="translate(-444.16 -259.574)" fill="#fff"/>
        <path id="Trazado_203" data-name="Trazado 203" d="M498.193,266.084c0-.885-.018-1.61-.071-2.318h1.362l.071,1.38h.053a2.952,2.952,0,0,1,2.689-1.574,2.53,2.53,0,0,1,2.423,1.716h.036a3.521,3.521,0,0,1,.955-1.114,2.921,2.921,0,0,1,1.893-.6c1.132,0,2.813.743,2.813,3.714v5.041h-1.522v-4.847c0-1.645-.6-2.636-1.857-2.636a2.015,2.015,0,0,0-1.839,1.415,2.566,2.566,0,0,0-.124.779v5.289h-1.521V267.2c0-1.362-.6-2.352-1.786-2.352a2.32,2.32,0,0,0-2.052,2.317v5.165h-1.522Z" transform="translate(-454.057 -259.574)" fill="#fff"/>
        <path id="Trazado_204" data-name="Trazado 204" d="M540.074,272.328l-.124-1.079H539.9a3.187,3.187,0,0,1-2.618,1.274,2.439,2.439,0,0,1-2.618-2.459c0-2.07,1.839-3.2,5.147-3.184V266.7a1.765,1.765,0,0,0-1.946-1.981,4.263,4.263,0,0,0-2.229.637l-.353-1.026a5.31,5.31,0,0,1,2.812-.76c2.618,0,3.255,1.786,3.255,3.5v3.2a12.079,12.079,0,0,0,.141,2.052Zm-.23-4.37c-1.7-.035-3.626.266-3.626,1.929a1.377,1.377,0,0,0,1.468,1.486,2.13,2.13,0,0,0,2.07-1.433,1.621,1.621,0,0,0,.089-.495Z" transform="translate(-474.551 -259.574)" fill="#fff"/>
        <path id="Trazado_205" data-name="Trazado 205" d="M565.231,272.031a5.727,5.727,0,0,1-2.459.5,4.068,4.068,0,0,1-4.263-4.369,4.35,4.35,0,0,1,4.6-4.547,5.2,5.2,0,0,1,2.158.443l-.354,1.2a3.611,3.611,0,0,0-1.8-.407,3.228,3.228,0,0,0-.053,6.439,4.424,4.424,0,0,0,1.911-.425Z" transform="translate(-487.927 -259.596)" fill="#fff"/>
        <path id="Trazado_206" data-name="Trazado 206" d="M583.763,257.293a.964.964,0,0,1-1.928,0,.948.948,0,0,1,.973-.973A.924.924,0,0,1,583.763,257.293Zm-1.734,10.967V259.7h1.557v8.562Z" transform="translate(-501.01 -255.506)" fill="#fff"/>
        <path id="Trazado_207" data-name="Trazado 207" d="M602.971,263.5a4.184,4.184,0,0,1-4.263,4.546,4.07,4.07,0,0,1-4.1-4.4,4.181,4.181,0,0,1,4.246-4.546C601.308,259.1,602.971,260.884,602.971,263.5Zm-6.793.088c0,1.875,1.079,3.29,2.6,3.29,1.485,0,2.6-1.4,2.6-3.326,0-1.45-.725-3.29-2.565-3.29S596.179,261.963,596.179,263.59Zm4.935-8-2.158,2.53h-1.114l1.556-2.53Z" transform="translate(-508.172 -255.1)" fill="#fff"/>
        <path id="Trazado_208" data-name="Trazado 208" d="M622.352,266.084c0-.885-.018-1.61-.071-2.318h1.379l.089,1.415h.036a3.147,3.147,0,0,1,2.83-1.609c1.185,0,3.025.707,3.025,3.644v5.112h-1.557v-4.935c0-1.38-.513-2.53-1.981-2.53a2.211,2.211,0,0,0-2.088,1.592,2.236,2.236,0,0,0-.106.725v5.148h-1.556Z" transform="translate(-523.696 -259.574)" fill="#fff"/>
        <path id="Trazado_209" data-name="Trazado 209" d="M662.037,268.33a2.743,2.743,0,0,0,2.937,2.972,5.631,5.631,0,0,0,2.37-.442l.265,1.114a6.935,6.935,0,0,1-2.848.531,3.976,3.976,0,0,1-4.21-4.316c0-2.582,1.521-4.616,4.015-4.616,2.8,0,3.538,2.459,3.538,4.033a5.865,5.865,0,0,1-.053.725Zm4.564-1.114a2.217,2.217,0,0,0-2.158-2.53,2.58,2.58,0,0,0-2.388,2.53Z" transform="translate(-545.161 -259.574)" fill="#fff"/>
        <path id="Trazado_210" data-name="Trazado 210" d="M685.473,270.736a4.079,4.079,0,0,0,2.052.619c1.132,0,1.663-.566,1.663-1.274,0-.743-.442-1.15-1.592-1.574-1.539-.548-2.264-1.4-2.264-2.423,0-1.38,1.114-2.512,2.954-2.512a4.273,4.273,0,0,1,2.105.53L690,265.234a3.334,3.334,0,0,0-1.751-.5c-.92,0-1.433.53-1.433,1.168,0,.707.513,1.026,1.627,1.45,1.486.566,2.247,1.309,2.247,2.582,0,1.5-1.168,2.565-3.2,2.565a4.881,4.881,0,0,1-2.406-.584Z" transform="translate(-558.921 -259.574)" fill="#fff"/>
        <path id="Trazado_211" data-name="Trazado 211" d="M707.349,258.415v2.459h2.229v1.186h-2.229v4.616c0,1.061.3,1.663,1.168,1.663a3.482,3.482,0,0,0,.9-.106l.071,1.167a3.807,3.807,0,0,1-1.38.213,2.158,2.158,0,0,1-1.68-.655,3.173,3.173,0,0,1-.6-2.229v-4.67H704.5v-1.186h1.327v-2.052Z" transform="translate(-569.812 -256.681)" fill="#fff"/>
        <path id="Trazado_212" data-name="Trazado 212" d="M724.272,266.437c0-1.008-.018-1.875-.071-2.671h1.362l.053,1.68h.071a2.569,2.569,0,0,1,2.37-1.875,1.682,1.682,0,0,1,.443.053v1.468a2.327,2.327,0,0,0-.531-.053,2.183,2.183,0,0,0-2.087,2,4.364,4.364,0,0,0-.071.725v4.564h-1.539Z" transform="translate(-580.862 -259.574)" fill="#fff"/>
        <path id="Trazado_213" data-name="Trazado 213" d="M745.527,272.328l-.124-1.079h-.054a3.188,3.188,0,0,1-2.618,1.274,2.439,2.439,0,0,1-2.618-2.459c0-2.07,1.839-3.2,5.147-3.184V266.7a1.765,1.765,0,0,0-1.946-1.981,4.264,4.264,0,0,0-2.229.637l-.353-1.026a5.31,5.31,0,0,1,2.813-.76c2.618,0,3.255,1.786,3.255,3.5v3.2a12.079,12.079,0,0,0,.141,2.052Zm-.23-4.37c-1.7-.035-3.626.266-3.626,1.929a1.377,1.377,0,0,0,1.468,1.486,2.13,2.13,0,0,0,2.07-1.433,1.622,1.622,0,0,0,.089-.495Z" transform="translate(-589.787 -259.574)" fill="#fff"/>
        <path id="Trazado_214" data-name="Trazado 214" d="M765.844,258.415v2.459h2.229v1.186h-2.229v4.616c0,1.061.3,1.663,1.168,1.663a3.482,3.482,0,0,0,.9-.106l.071,1.167a3.81,3.81,0,0,1-1.38.213,2.157,2.157,0,0,1-1.68-.655,3.17,3.17,0,0,1-.6-2.229v-4.67H763v-1.186h1.327v-2.052Z" transform="translate(-602.621 -256.681)" fill="#fff"/>
        <path id="Trazado_215" data-name="Trazado 215" d="M782.69,263.856a2.743,2.743,0,0,0,2.936,2.972,5.628,5.628,0,0,0,2.37-.442l.265,1.114a6.93,6.93,0,0,1-2.848.531,3.976,3.976,0,0,1-4.21-4.316c0-2.582,1.522-4.616,4.015-4.616,2.8,0,3.538,2.459,3.538,4.033a5.971,5.971,0,0,1-.053.725Zm4.564-1.114a2.216,2.216,0,0,0-2.158-2.53,2.58,2.58,0,0,0-2.388,2.53Zm.372-7.147-2.158,2.53h-1.115l1.556-2.53Z" transform="translate(-612.834 -255.1)" fill="#fff"/>
        <path id="Trazado_216" data-name="Trazado 216" d="M813.693,263.766c-.036.619-.071,1.309-.071,2.353v4.971c0,1.963-.39,3.167-1.221,3.909a4.54,4.54,0,0,1-3.113,1.026,5.53,5.53,0,0,1-2.848-.707l.39-1.186a4.821,4.821,0,0,0,2.512.672c1.592,0,2.759-.831,2.759-2.989v-.956h-.036a3.056,3.056,0,0,1-2.724,1.433c-2.123,0-3.644-1.8-3.644-4.175,0-2.9,1.893-4.546,3.856-4.546a2.847,2.847,0,0,1,2.671,1.486h.036l.071-1.291Zm-1.61,3.379a2.219,2.219,0,0,0-.089-.708,2.242,2.242,0,0,0-2.175-1.645c-1.486,0-2.547,1.256-2.547,3.237,0,1.681.849,3.078,2.529,3.078a2.276,2.276,0,0,0,2.158-1.592,2.717,2.717,0,0,0,.124-.831Z" transform="translate(-626.572 -259.574)" fill="#fff"/>
        <path id="Trazado_217" data-name="Trazado 217" d="M835.18,257.293a.964.964,0,0,1-1.928,0,.948.948,0,0,1,.973-.973A.924.924,0,0,1,835.18,257.293Zm-1.734,10.967V259.7H835v8.562Z" transform="translate(-642.027 -255.506)" fill="#fff"/>
        <path id="Trazado_218" data-name="Trazado 218" d="M852.744,272.031a5.731,5.731,0,0,1-2.459.5,4.067,4.067,0,0,1-4.263-4.369,4.35,4.35,0,0,1,4.6-4.547,5.2,5.2,0,0,1,2.158.443l-.354,1.2a3.611,3.611,0,0,0-1.8-.407,3.228,3.228,0,0,0-.053,6.439,4.426,4.426,0,0,0,1.911-.425Z" transform="translate(-649.189 -259.596)" fill="#fff"/>
        <path id="Trazado_219" data-name="Trazado 219" d="M873.673,272.328l-.124-1.079H873.5a3.189,3.189,0,0,1-2.618,1.274,2.439,2.439,0,0,1-2.618-2.459c0-2.07,1.84-3.2,5.147-3.184V266.7a1.765,1.765,0,0,0-1.946-1.981,4.263,4.263,0,0,0-2.229.637l-.354-1.026a5.311,5.311,0,0,1,2.813-.76c2.618,0,3.255,1.786,3.255,3.5v3.2a12.085,12.085,0,0,0,.141,2.052Zm-.23-4.37c-1.7-.035-3.627.266-3.627,1.929a1.378,1.378,0,0,0,1.468,1.486,2.131,2.131,0,0,0,2.07-1.433,1.63,1.63,0,0,0,.088-.495Z" transform="translate(-661.662 -259.574)" fill="#fff"/>
      </g>
    </g>
    <ellipse id="Elipse_118" data-name="Elipse 118" cx="13.173" cy="13.173" rx="13.173" ry="13.173" transform="translate(177.795 155.676)" fill="#fff"/>
  </g>
</svg>
