<?xml version="1.0" encoding="utf-8"?>
<!-- Generator: Adobe Illustrator 23.0.3, SVG Export Plug-In . SVG Version: 6.00 Build 0)  -->
<svg version="1.1" id="Capa_1" xmlns="http://www.w3.org/2000/svg" xmlns:xlink="http://www.w3.org/1999/xlink" x="0px" y="0px"
	 viewBox="0 0 36 36" style="enable-background:new 0 0 36 36;" xml:space="preserve">
<style type="text/css">
	.st0{fill:#FFFFFF;}
	.st1{fill:none;}
</style>
<g>
	<g>
		<path class="st0" d="M30.1,9H5.9c-0.8,0-1.4,0.6-1.4,1.4v15.1c0,0.8,0.6,1.4,1.4,1.4h24.1c0.8,0,1.4-0.6,1.4-1.4V10.4
			C31.5,9.6,30.9,9,30.1,9z M30.1,24.5L23.5,18l6.5-6.5V24.5z M29,10.4L18.5,21c-0.3,0.3-0.7,0.3-1,0L7,10.4H29z M5.9,11.5l6.5,6.5
			l-6.5,6.5V11.5z M7,25.6l6.5-6.5l3.5,3.5c0.6,0.6,1.5,0.6,2,0l3.5-3.5l6.5,6.5H7z"/>
	</g>
	<rect x="0" class="st1" width="36" height="36"/>
</g>
</svg>
