<?xml version="1.0" encoding="utf-8"?>
<!-- Generator: Adobe Illustrator 23.0.3, SVG Export Plug-In . SVG Version: 6.00 Build 0)  -->
<svg version="1.1" id="Capa_1" xmlns="http://www.w3.org/2000/svg" xmlns:xlink="http://www.w3.org/1999/xlink" x="0px" y="0px"
	 viewBox="0 0 36 36" style="enable-background:new 0 0 36 36;" xml:space="preserve">
<style type="text/css">
	.st0{fill:#FFFFFF;}
	.st1{fill:none;}
</style>
<g>
	<g>
		<g>
			<path class="st0" d="M6.6,14.3v13.4c0,1,0.8,1.8,1.8,1.8h19.1c1,0,1.8-0.8,1.8-1.8V14.3c0-1-0.8-1.8-1.8-1.8H8.5
				C7.4,12.4,6.6,13.3,6.6,14.3z M26.6,27.7H9.4c-0.5,0-0.9-0.4-0.9-0.9V15.2c0-0.5,0.4-0.9,0.9-0.9h17.3c0.5,0,0.9,0.4,0.9,0.9
				v11.6C27.5,27.3,27.1,27.7,26.6,27.7z"/>
		</g>
		<g>
			<path class="st0" d="M14.1,10.7v-3c0-0.5,0.4-0.9,0.9-0.9H21c0.5,0,0.9,0.4,0.9,0.9v3h1.8V6.9c0-1-0.8-1.8-1.8-1.8h-7.7
				c-1,0-1.8,0.8-1.8,1.8v3.9L14.1,10.7z"/>
		</g>
		<g>
			<path class="st0" d="M18,17.2c-2.1,0-3.8,1.7-3.8,3.8s1.7,3.8,3.8,3.8c2.1,0,3.8-1.7,3.8-3.8S20.1,17.2,18,17.2z M18,22.9
				c-1.1,0-1.9-0.9-1.9-1.9c0-1.1,0.9-1.9,1.9-1.9c1.1,0,1.9,0.9,1.9,1.9C19.9,22,19.1,22.9,18,22.9z"/>
		</g>
	</g>
	<rect class="st1" width="36" height="36"/>
</g>
</svg>
