<?xml version="1.0" encoding="utf-8"?>
<!-- Generator: Adobe Illustrator 23.0.3, SVG Export Plug-In . SVG Version: 6.00 Build 0)  -->
<svg version="1.1" id="Capa_1" xmlns="http://www.w3.org/2000/svg" xmlns:xlink="http://www.w3.org/1999/xlink" x="0px" y="0px"
	 viewBox="0 0 36 36" style="enable-background:new 0 0 36 36;" xml:space="preserve">
<style type="text/css">
	.st0{fill:#FFFFFF;}
	.st1{fill:none;}
</style>
<g>
	<g>
		<g>
			<path class="st0" d="M8.6,16.6H8.4H8.6C8.5,16.6,8.5,16.6,8.6,16.6z"/>
		</g>
		<g>
			<path class="st0" d="M27.5,16.6h-0.1C27.4,16.6,27.5,16.5,27.5,16.6L27.5,16.6z"/>
		</g>
		<g>
			<path class="st0" d="M8.5,16.5L8.5,16.5L8.5,16.5C8.5,16.6,8.5,16.6,8.5,16.5z M27.5,16.5c0,0-0.1,0-0.1,0.1L27.5,16.5L27.5,16.5
				z"/>
			<path class="st0" d="M17.2,3.4L7.8,15.9c-0.4,0.5-0.2,1.2,0.3,1.5h0c2,1,3.7,2.6,4.9,4.5c1.1,1.7,1.7,3.7,1.8,5.7h-2.4
				c-0.5,0-0.9,0.4-0.9,0.9v0c0,0.5,0.4,0.9,0.9,0.9h10.9c0.5,0,0.9-0.4,0.9-0.9v0c0-0.5-0.4-0.9-0.9-0.9h-2.4c0.1-2,0.8-4,1.8-5.7
				c1.2-1.9,2.9-3.5,4.9-4.5c0,0,0,0,0.1,0v0c0.5-0.3,0.7-0.9,0.3-1.4L18.8,3.4C18.4,2.9,17.6,2.9,17.2,3.4z M17.9,15
				c0.9-0.1,1.7,0.7,1.7,1.7c-0.1,0.8-0.7,1.4-1.4,1.4c-0.9,0.1-1.7-0.7-1.6-1.6C16.5,15.7,17.1,15.1,17.9,15z M21.3,21
				c-1.3,2-2,4.3-2.1,6.7h-2.5c-0.2-2.4-0.9-4.7-2.1-6.7c-1.2-1.9-2.7-3.4-4.5-4.6C10,16.3,9.9,16.1,10,16l7.1-9.4v6.7
				c-1.5,0.4-2.6,1.8-2.5,3.4c0.1,1.7,1.5,3.1,3.2,3.2c1.9,0.1,3.5-1.5,3.5-3.4c0-1.5-1-2.8-2.5-3.3V6.6l7,9.4
				c0.1,0.1,0.1,0.3-0.1,0.4C24.1,17.5,22.5,19.1,21.3,21z"/>
		</g>
		<g>
			<path class="st0" d="M15.7,30.5v1.6c0,0.5-0.4,0.9-0.9,0.9h0c-0.5,0-0.9-0.4-0.9-0.9v-1.6H15.7z"/>
		</g>
		<g>
			<path class="st0" d="M22.1,30.5v1.6c0,0.5-0.4,0.9-0.9,0.9h0c-0.5,0-0.9-0.4-0.9-0.9v-1.6H22.1z"/>
		</g>
	</g>
	<rect class="st1" width="36" height="36"/>
</g>
</svg>
