<?xml version="1.0" encoding="utf-8"?>
<!-- Generator: Adobe Illustrator 23.0.3, SVG Export Plug-In . SVG Version: 6.00 Build 0)  -->
<svg version="1.1" id="Capa_1" xmlns="http://www.w3.org/2000/svg" xmlns:xlink="http://www.w3.org/1999/xlink" x="0px" y="0px"
	 viewBox="0 0 36 36" style="enable-background:new 0 0 36 36;" xml:space="preserve">
<style type="text/css">
	.st0{fill:#FFFFFF;}
	.st1{fill:none;}
</style>
<g>
	<g>
		<path class="st0" d="M23.3,32c-0.3,0-0.7-0.1-1-0.2c-3.7-1.5-7-3.9-9.5-7c-1.6-2-2.9-4.2-3.8-6.6c-1-2.7-1.5-5.5-1.5-8.4
			c0-0.8,0-1.6,0.1-2.5c0.1-1.1,0.9-2,2-2.3l3.7-1C14,3.9,14.8,4,15.5,4.5c0.6,0.4,1.1,1.1,1.2,1.9c0.1,1.1,0.3,2.2,0.6,3.2
			c0.3,1.1-0.1,2.2-0.9,3l-1.8,1.7c-0.1,0.1-0.2,0.3-0.1,0.5c0.9,2.6,2.3,5,4.2,7.1c0.1,0.1,0.3,0.2,0.5,0.1l2.6-0.7
			c0.9-0.2,1.9,0,2.6,0.7c1,0.9,2,1.8,3.1,2.6l0,0c0.7,0.5,1.1,1.2,1.1,2c0.1,0.8-0.3,1.6-0.8,2.2l-2.5,2.4C24.7,31.7,24,32,23.3,32
			z M13.9,5.4c-0.1,0-0.2,0-0.3,0l-3.7,1C9.4,6.6,9.1,7,9,7.5C8.9,8.3,8.9,9.1,8.9,9.9c0,2.7,0.5,5.4,1.4,7.9
			c0.9,2.3,2.1,4.3,3.6,6.2c2.4,2.9,5.5,5.2,8.9,6.6c0.5,0.2,1,0.1,1.4-0.3l2.5-2.4c0.3-0.3,0.4-0.6,0.4-1c0-0.4-0.2-0.7-0.5-1l0,0
			c-1.2-0.8-2.3-1.8-3.3-2.7c-0.3-0.3-0.8-0.4-1.2-0.3l-2.6,0.7c-0.7,0.2-1.5,0-1.9-0.6c-2-2.2-3.4-4.8-4.4-7.6
			c-0.3-0.7-0.1-1.5,0.5-2l1.8-1.7c0.4-0.4,0.6-1,0.5-1.6c-0.3-1.1-0.5-2.3-0.6-3.4c0-0.4-0.2-0.7-0.5-0.9
			C14.4,5.5,14.2,5.4,13.9,5.4z"/>
	</g>
	<rect class="st1" width="36" height="36"/>
</g>
</svg>
