<?xml version="1.0" encoding="utf-8"?>
<!-- Generator: Adobe Illustrator 23.0.3, SVG Export Plug-In . SVG Version: 6.00 Build 0)  -->
<svg version="1.1" id="Capa_1" xmlns="http://www.w3.org/2000/svg" xmlns:xlink="http://www.w3.org/1999/xlink" x="0px" y="0px"
	 viewBox="0 0 36 36" style="enable-background:new 0 0 36 36;" xml:space="preserve">
<style type="text/css">
	.st0{fill:#FFFFFF;}
	.st1{fill:none;}
</style>
<g>
	<g>
		<g>
			<path class="st0" d="M9.4,19.1l1.7,0.7v0L9.4,19.1z"/>
		</g>
		<g>
			<path class="st0" d="M20.7,16.8V22l-1.6-0.7L18.2,7.5C18.2,7.3,18,7,17.7,7l-2.9,0c-0.3,0-0.5,0.2-0.5,0.5l-0.8,11.7l-2.5-1
				L10.3,7.4c0-0.2-0.2-0.4-0.4-0.4L5.4,7C5.2,7,5,7.2,5,7.4L3.6,28.5c0,0.3,0.2,0.5,0.5,0.5l4.8,0H32c0.3,0,0.5-0.2,0.5-0.5v-5.4
				c0-0.3-0.2-0.5-0.4-0.7L20.7,16.8z M15.7,8.5l1.1,0l0.7,12.3l-2.6-1L15.7,8.5z M7.3,16.6v11l-1.8,0c-0.2,0-0.4-0.2-0.4-0.4
				L6.4,8.9c0-0.2,0.2-0.4,0.4-0.4l1.7,0c0.2,0,0.4,0.2,0.4,0.4l0.5,8.6L7.3,16.6z M30.6,27.5H8.8v-8.7l2.3,0.9v0l2.3,0.9l5.8,2.3
				l3,1.2v-5l8.4,4.2c0.2,0.1,0.3,0.3,0.3,0.5v3.2C31,27.3,30.8,27.5,30.6,27.5z"/>
		</g>
		<g>
			<polygon class="st0" points="19.5,29 12.8,29 12.8,29 19.5,29 			"/>
		</g>
		<g>
			<rect x="10.2" y="25.2" class="st0" width="1.6" height="1.6"/>
		</g>
		<g>
			<rect x="12.6" y="25.2" class="st0" width="1.6" height="1.6"/>
		</g>
		<g>
			<rect x="15" y="25.2" class="st0" width="1.6" height="1.6"/>
		</g>
		<g>
			<rect x="17.3" y="25.2" class="st0" width="1.6" height="1.6"/>
		</g>
	</g>
	<rect class="st1" width="36" height="36"/>
</g>
</svg>
