<?xml version="1.0" encoding="utf-8"?>
<!-- Generator: Adobe Illustrator 23.0.3, SVG Export Plug-In . SVG Version: 6.00 Build 0)  -->
<svg version="1.1" id="Capa_1" xmlns="http://www.w3.org/2000/svg" xmlns:xlink="http://www.w3.org/1999/xlink" x="0px" y="0px"
	 viewBox="0 0 36 36" style="enable-background:new 0 0 36 36;" xml:space="preserve">
<style type="text/css">
	.st0{fill:#FFFFFF;}
	.st1{fill:none;}
</style>
<g>
	<g>
		<path class="st0" d="M20,18c0,0.3,0,0.6,0.1,0.8h-4.2C16,18.6,16,18.3,16,18c0-0.3,0-0.6-0.1-0.9h4.2C20.1,17.4,20,17.7,20,18z"/>
		<path class="st0" d="M28.8,10l-2.5,5c-0.2-0.2-0.5-0.3-0.7-0.5c-0.3-0.1-0.5-0.2-0.8-0.3l2.5-5C27.7,9.6,28.3,9.8,28.8,10
			C28.8,10,28.8,10,28.8,10z"/>
		<path class="st0" d="M11.2,21.7l-2.5,5c0,0,0,0,0,0c-0.2-0.2-0.5-0.3-0.7-0.5C7.7,26.1,7.5,26,7.2,26l2.5-5
			C10.1,21.3,10.6,21.6,11.2,21.7z"/>
		<path class="st0" d="M12.1,21.2c-0.5,0-1-0.1-1.4-0.3c-1.1-0.5-1.8-1.6-1.8-2.9c0-1.8,1.4-3.2,3.2-3.2s3.2,1.4,3.2,3.2
			S13.9,21.2,12.1,21.2z M12.1,16.5c-0.8,0-1.5,0.7-1.5,1.5c0,0.6,0.3,1.1,0.8,1.4c0.2,0.1,0.4,0.2,0.7,0.2c0.8,0,1.5-0.7,1.5-1.5
			S13,16.5,12.1,16.5z"/>
		<path class="st0" d="M23.9,21.2c-1.8,0-3.2-1.4-3.2-3.2s1.4-3.2,3.2-3.2c0.5,0,1,0.1,1.4,0.3c1.1,0.5,1.8,1.6,1.8,2.9
			C27.1,19.8,25.6,21.2,23.9,21.2z M23.9,16.5c-0.8,0-1.5,0.7-1.5,1.5s0.7,1.5,1.5,1.5c0.8,0,1.5-0.7,1.5-1.5c0-0.6-0.3-1.1-0.8-1.4
			C24.3,16.5,24.1,16.5,23.9,16.5z"/>
		<path class="st0" d="M29.7,9.4c-0.5,0-1-0.1-1.4-0.3c-1.1-0.5-1.8-1.6-1.8-2.9C26.5,4.5,28,3,29.7,3c1.8,0,3.2,1.4,3.2,3.2
			S31.5,9.4,29.7,9.4z M29.7,4.7c-0.8,0-1.5,0.7-1.5,1.5c0,0.6,0.3,1.1,0.8,1.3c0.2,0.1,0.4,0.2,0.7,0.2c0.8,0,1.5-0.7,1.5-1.5
			S30.6,4.7,29.7,4.7z"/>
		<path class="st0" d="M6.3,33c-1.8,0-3.2-1.4-3.2-3.2c0-1.8,1.4-3.2,3.2-3.2c0.5,0,1,0.1,1.4,0.3c1.1,0.5,1.8,1.6,1.8,2.9
			C9.5,31.5,8,33,6.3,33z M6.3,28.2c-0.8,0-1.5,0.7-1.5,1.5c0,0.8,0.7,1.5,1.5,1.5c0.8,0,1.5-0.7,1.5-1.5c0-0.6-0.3-1.1-0.8-1.4
			C6.7,28.3,6.5,28.2,6.3,28.2z"/>
	</g>
	<rect class="st1" width="36" height="36"/>
</g>
</svg>
