<?xml version="1.0" encoding="utf-8"?>
<!-- Generator: Adobe Illustrator 23.0.3, SVG Export Plug-In . SVG Version: 6.00 Build 0)  -->
<svg version="1.1" id="Capa_1" xmlns="http://www.w3.org/2000/svg" xmlns:xlink="http://www.w3.org/1999/xlink" x="0px" y="0px"
	 viewBox="0 0 36 36" style="enable-background:new 0 0 36 36;" xml:space="preserve">
<style type="text/css">
	.st0{fill:#FFFFFF;}
	.st1{fill:none;}
</style>
<g>
	<g>
		<g>
			<path class="st0" d="M26.8,10.5c0-1-1.3-1.5-1.7-1.6c-0.7-0.3-1.6-0.5-2.7-0.6V8.1C22.4,6.4,21,5,19.2,5h-2.5
				c-1.7,0-3.1,1.4-3.1,3.1v0.1c-1.1,0.2-2,0.4-2.7,0.6C10.5,9,9.2,9.4,9.2,10.5c0,1,1.1,1.7,3.5,2.1c-0.1,0.3-0.1,0.7-0.1,1
				c0,3,2.4,5.4,5.4,5.4s5.4-2.4,5.4-5.4c0-0.3,0-0.7-0.1-1C25.6,12.1,26.8,11.4,26.8,10.5z M18,17.6c-2.2,0-4-1.8-4-4
				c0-0.3,0-0.6,0.1-0.8c1.2,0.1,2.5,0.2,3.9,0.2c1.4,0,2.7-0.1,3.9-0.2c0.1,0.3,0.1,0.5,0.1,0.8C22,15.8,20.2,17.6,18,17.6z
				 M22.3,11.3c-1.3,0.2-2.8,0.3-4.3,0.3c-1.5,0-3-0.1-4.3-0.3c-1.9-0.3-2.7-0.7-3-0.8c0.4-0.2,1.4-0.7,3.7-0.9l0.3,0
				c0.2,0,0.3-0.2,0.3-0.4v-1c0-0.9,0.8-1.7,1.7-1.7h2.5c0.9,0,1.7,0.8,1.7,1.7v1c0,0.2,0.1,0.3,0.3,0.4l0.3,0
				c2.3,0.3,3.3,0.7,3.7,0.9C25,10.6,24.2,11,22.3,11.3z"/>
		</g>
		<g>
			<path class="st0" d="M21.7,10.6"/>
		</g>
		<g>
			<path class="st0" d="M14.3,10.6"/>
		</g>
		<g>
			<path class="st0" d="M25.3,23c-2-2-4.5-3-7.3-3c-2.8,0-5.4,1.1-7.3,3c-2,2-3,4.5-3,7.3l0,0C7.7,30.7,8,31,8.4,31h19.2
				c0.4,0,0.7-0.3,0.7-0.7l0,0C28.3,27.5,27.3,24.9,25.3,23z M14.9,21.9c1-0.4,2-0.5,3.1-0.5c1.1,0,2.1,0.2,3.1,0.5v2.5
				c0,0.2-0.2,0.4-0.4,0.4h-5.4c-0.2,0-0.4-0.2-0.4-0.4V21.9z M10.3,25.8v3.8H9.5c-0.2,0-0.4-0.2-0.4-0.4C9.3,28,9.7,26.8,10.3,25.8
				z M24.3,29.6H11.7V24c0.5-0.5,1.1-1,1.8-1.4v2.8c0,0.4,0.3,0.7,0.7,0.7h7.5c0.4,0,0.7-0.3,0.7-0.7v-2.8c0.6,0.4,1.2,0.8,1.8,1.4
				V29.6z M25.7,29.6v-3.8c0.6,1,1,2.2,1.1,3.3c0,0.2-0.1,0.4-0.4,0.4H25.7z"/>
		</g>
	</g>
	<rect class="st1" width="36" height="36"/>
</g>
</svg>
