<?xml version="1.0" encoding="utf-8"?>
<!-- Generator: Adobe Illustrator 23.0.3, SVG Export Plug-In . SVG Version: 6.00 Build 0)  -->
<svg version="1.1" id="Capa_1" xmlns="http://www.w3.org/2000/svg" xmlns:xlink="http://www.w3.org/1999/xlink" x="0px" y="0px"
	 viewBox="0 0 36 36" style="enable-background:new 0 0 36 36;" xml:space="preserve">
<style type="text/css">
	.st0{fill:#FFFFFF;}
	.st1{fill:none;}
</style>
<g>
	<g>
		<g>
			<path class="st0" d="M30.1,22.9"/>
		</g>
		<g>
			<path class="st0" d="M30.6,5.6v7.5h-7.5v-1.9H28c-2.2-3.3-6-5.3-10-5.3c-4.9,0-9.2,2.9-11.2,7.4l-1.7-0.7C7.3,7.3,12.3,4,17.9,4
				c4.2,0,8.1,1.9,10.7,5V5.6H30.6z"/>
		</g>
		<g>
			<path class="st0" d="M30.9,23.2c-1,2.6-2.8,4.8-5.1,6.3c-2.3,1.6-5.1,2.5-7.9,2.5c-2.7,0-5.3-0.8-7.5-2.2C9.1,29,8,27.9,7,26.7
				V30H5.1v-7.5h7.5v1.9h-5c1,1.6,2.3,2.9,3.8,3.9c1.9,1.2,4.2,1.9,6.5,1.9c2.5,0,4.8-0.7,6.9-2.1c2-1.4,3.5-3.3,4.4-5.5L30.9,23.2z
				"/>
		</g>
		<g>
			<path class="st0" d="M5.9,12.9"/>
		</g>
	</g>
	<rect class="st1" width="36" height="36"/>
</g>
</svg>
