<?xml version="1.0" encoding="utf-8"?>
<!-- Generator: Adobe Illustrator 23.0.3, SVG Export Plug-In . SVG Version: 6.00 Build 0)  -->
<svg version="1.1" id="Capa_1" xmlns="http://www.w3.org/2000/svg" xmlns:xlink="http://www.w3.org/1999/xlink" x="0px" y="0px"
	 viewBox="0 0 36 36" style="enable-background:new 0 0 36 36;" xml:space="preserve">
<style type="text/css">
	.st0{fill:#FFFFFF;}
	.st1{fill:none;}
</style>
<g>
	<g>
		<path class="st0" d="M18,20.1c2.4,0,4.6,0.9,6.3,2.6c1.1,1.1,1.9,2.5,2.3,4.1c0.1,0.3-0.1,0.5-0.4,0.5H9.8c-0.3,0-0.5-0.3-0.4-0.5
			c0.4-1.5,1.2-2.9,2.3-4.1C13.4,21,15.6,20.1,18,20.1 M18,18.4c-5.5,0-10.1,4.2-10.5,9.7c0,0.5,0.3,0.9,0.8,0.9h19.4
			c0.5,0,0.9-0.4,0.8-0.9C28.1,22.7,23.5,18.4,18,18.4L18,18.4z"/>
		<path class="st0" d="M18,8.7c2,0,3.6,1.6,3.6,3.6S20,15.9,18,15.9s-3.6-1.6-3.6-3.6S16,8.7,18,8.7 M18,7c-2.9,0-5.3,2.4-5.3,5.3
			s2.4,5.3,5.3,5.3c2.9,0,5.3-2.4,5.3-5.3S20.9,7,18,7L18,7z"/>
	</g>
	<rect class="st1" width="36" height="36"/>
</g>
</svg>
