<?xml version="1.0" encoding="utf-8"?>
<!-- Generator: Adobe Illustrator 23.0.3, SVG Export Plug-In . SVG Version: 6.00 Build 0)  -->
<svg version="1.1" id="Capa_1" xmlns="http://www.w3.org/2000/svg" xmlns:xlink="http://www.w3.org/1999/xlink" x="0px" y="0px"
	 viewBox="0 0 150 150" style="enable-background:new 0 0 150 150;" xml:space="preserve">
<style type="text/css">
	.st0{fill:#767676;}
</style>
<g>
	<g id="Grupo_151" transform="translate(0 98.45)">
		<path id="Trazado_161" class="st0" d="M21.8,14.3c0.3,0.1,0.6,0.2,0.9,0.3c0.1,0,0.3-0.1,0.4-0.2c0.1-0.1,0.1-0.2,0.2-0.4h0.3v2.8
			h-0.3c-0.2-0.5-0.5-1-0.9-1.5c-0.5-0.6-1.2-1-1.9-1c-0.7,0-1.4,0.4-1.7,1c-0.4,0.9-0.6,1.9-0.5,2.8c0,0.7,0.1,1.4,0.3,2.1
			c0.2,0.9,1.1,1.6,2.1,1.6c0.6,0,1.2-0.2,1.7-0.5c0.4-0.3,0.8-0.6,1.1-1l0.4,0.3c-0.4,0.4-0.8,0.8-1.2,1.1
			c-0.6,0.4-1.4,0.6-2.1,0.6c-1.1,0-2.2-0.3-3-1.1c-0.9-0.8-1.4-2-1.3-3.2c0-1.2,0.4-2.4,1.3-3.2c0.8-0.8,1.9-1.2,3-1.1
			C20.8,14.1,21.3,14.2,21.8,14.3z"/>
		<path id="Trazado_162" class="st0" d="M24.6,22.4v-0.3c0.3,0,0.5,0,0.7-0.1c0.2-0.2,0.4-0.4,0.3-0.7v-5.9c0-0.3-0.1-0.6-0.3-0.7
			c-0.2-0.1-0.5-0.1-0.7-0.1v-0.3h7v2.4h-0.3c-0.1-0.6-0.3-1.2-0.8-1.6c-0.6-0.3-1.3-0.5-2-0.4c-0.2,0-0.5,0-0.7,0.1
			c-0.1,0.1-0.2,0.3-0.2,0.5V18c0.5,0.1,1-0.1,1.4-0.4c0.3-0.4,0.5-0.9,0.6-1.4h0.3v4.1h-0.3c0-0.5-0.2-1-0.5-1.5
			c-0.4-0.3-0.9-0.5-1.4-0.4v2.9c0,0.2,0.1,0.4,0.2,0.5C28,22,28.3,22,28.6,22c0.7,0,1.3-0.1,1.9-0.4c0.6-0.4,1-1,1.3-1.7h0.3
			l-0.5,2.5L24.6,22.4z"/>
		<path id="Trazado_163" class="st0" d="M32.6,22.1c0.3,0,0.6-0.1,0.9-0.3c0.1-0.2,0.2-0.5,0.2-0.7v-5.7c-0.4-0.4-0.6-0.7-0.7-0.7
			c-0.1-0.1-0.2-0.1-0.4-0.1v-0.3h2.6l4.2,5.1h0.1v-3.6c0-0.3-0.1-0.6-0.2-0.9c-0.2-0.2-0.6-0.3-0.9-0.3v-0.3h2.6v0.3
			c-0.3,0-0.5,0.1-0.8,0.3C40,15,39.9,15.2,40,15.5v7.1h-0.3l-5.3-6.5h-0.1v4.7c0,0.3,0,0.5,0.2,0.8c0.2,0.3,0.6,0.4,1,0.4v0.3h-2.7
			L32.6,22.1z"/>
		<path id="Trazado_164" class="st0" d="M41.5,14.2h7.3l0,2.4h-0.3c0-0.7-0.4-1.4-1-1.8c-0.4-0.2-0.9-0.3-1.4-0.3V21
			c0,0.3,0,0.6,0.2,0.9c0.3,0.2,0.6,0.3,1,0.2v0.3H43v-0.3c0.3,0,0.7,0,0.9-0.2c0.2-0.3,0.3-0.6,0.2-0.9v-6.4
			c-0.5,0-0.9,0.1-1.4,0.3c-0.6,0.4-1,1-1,1.8h-0.3L41.5,14.2z"/>
		<path id="Trazado_165" class="st0" d="M49.4,22.1c0.3,0,0.6-0.1,0.8-0.2c0.2-0.3,0.3-0.6,0.2-0.9v-5.4c0-0.3-0.1-0.7-0.3-0.9
			c-0.2-0.1-0.5-0.2-0.8-0.2v-0.3h3.9c0.7,0,1.3,0.1,2,0.3c0.9,0.2,1.5,1,1.5,1.9c0,0.6-0.3,1.2-0.8,1.6c-0.4,0.3-0.8,0.5-1.2,0.5
			l2.6,3.4c0.1,0.1,0.1,0.1,0.2,0.2c0.1,0,0.2,0.1,0.3,0.1v0.3h-2.5l-2.8-3.8l0,0V21c-0.1,0.5,0.1,1,0.6,1.1c0.1,0,0.3,0,0.5,0v0.3
			h-4.1L49.4,22.1z M54.2,17.9c0.3-0.2,0.5-0.7,0.5-1.5c0-0.4-0.1-0.8-0.2-1.1c-0.2-0.5-0.7-0.7-1.2-0.7c-0.2,0-0.4,0-0.6,0.1
			c-0.1,0.1-0.2,0.3-0.2,0.4v3.1C53.1,18.3,53.6,18.1,54.2,17.9L54.2,17.9z"/>
		<path id="Trazado_166" class="st0" d="M58.2,22.1c0.3,0,0.5-0.2,0.7-0.4c0.2-0.3,0.4-0.7,0.5-1l2.7-6.6h0.3l2.7,6.4
			c0.2,0.5,0.4,0.9,0.7,1.4c0.1,0.2,0.4,0.3,0.6,0.3v0.3h-3.9v-0.3c0.3,0,0.5,0,0.8-0.1c0.1-0.1,0.2-0.2,0.2-0.4
			c0-0.1,0-0.3-0.1-0.4c0-0.1-0.1-0.3-0.2-0.4L62.9,20h-2.7c-0.2,0.5-0.3,0.8-0.3,0.9c-0.1,0.2-0.1,0.4-0.2,0.7
			c0,0.2,0.1,0.3,0.3,0.4c0.2,0.1,0.4,0.1,0.6,0.1v0.3h-2.5L58.2,22.1z M62.8,19.5l-1.2-2.8h-0.1l-1.1,2.8H62.8z"/>
		<path id="Trazado_167" class="st0" d="M66.9,22.1c0.2,0,0.5,0,0.7-0.1c0.3-0.1,0.4-0.4,0.4-0.7v-5.9c0-0.3-0.1-0.6-0.3-0.7
			c-0.2-0.1-0.5-0.1-0.7-0.1v-0.3h4.2v0.3c-0.3,0-0.7,0.1-1,0.2C70,14.8,70,15.1,70,15.6v5.7c0,0.2,0.1,0.4,0.2,0.5
			C70.4,22,70.7,22,71,22c0.6,0,1.3-0.1,1.8-0.5c0.6-0.5,1.1-1.1,1.3-1.9h0.4L74,22.4h-7V22.1z"/>
	</g>
	<g id="Grupo_152" transform="translate(98.847 113.834)">
		<path id="Trazado_168" class="st0" d="M16.1,19.1h0.3c0.1,0.7,0.4,1.3,0.8,1.8c0.4,0.4,0.8,0.6,1.3,0.6c0.7,0.1,1.2-0.4,1.3-1
			c0-0.1,0-0.1,0-0.2c0-0.3-0.1-0.6-0.3-0.8c-0.3-0.2-0.6-0.4-0.9-0.5L18,18.6c-0.5-0.2-1-0.6-1.5-1c-0.3-0.4-0.4-0.8-0.4-1.3
			c0-0.5,0.2-1.1,0.6-1.5c0.4-0.5,1.1-0.7,1.7-0.7c0.4,0,0.8,0.1,1.1,0.2c0.2,0.1,0.4,0.1,0.6,0.2c0.1,0,0.2,0,0.2-0.1
			c0.1-0.1,0.1-0.2,0.1-0.3h0.3v2.4h-0.3c-0.1-0.5-0.4-1-0.8-1.4c-0.3-0.4-0.8-0.6-1.3-0.6c-0.3,0-0.6,0.1-0.9,0.3
			c-0.4,0.4-0.4,1.1,0,1.5c0.4,0.3,0.8,0.6,1.3,0.8l0.8,0.4c0.3,0.2,0.6,0.4,0.9,0.6c0.4,0.4,0.6,0.9,0.6,1.5c0,0.6-0.2,1.1-0.6,1.6
			c-0.5,0.5-1.3,0.8-2.1,0.7c-0.2,0-0.4,0-0.7-0.1c-0.2,0-0.4-0.1-0.7-0.2L17,21.4c0,0-0.1,0-0.1,0c0,0-0.1,0-0.1,0
			c-0.1,0-0.2,0-0.2,0.1c-0.1,0.1-0.1,0.2-0.1,0.3h-0.3L16.1,19.1z"/>
		<path id="Trazado_169" class="st0" d="M22.9,20.2c0.4-0.4,0.9-0.4,1.3,0s0.4,0.9,0,1.3c-0.4,0.4-0.9,0.4-1.3,0
			c-0.2-0.2-0.3-0.4-0.3-0.7C22.6,20.6,22.7,20.4,22.9,20.2z"/>
		<path id="Trazado_170" class="st0" d="M24.7,21.4c0.3,0,0.5-0.1,0.6-0.4c0.2-0.3,0.3-0.6,0.4-0.9l2.4-6h0.3l2.4,5.7
			c0.2,0.4,0.4,0.8,0.6,1.2c0.1,0.2,0.3,0.3,0.6,0.3v0.3h-3.5v-0.3c0.2,0,0.5,0,0.7-0.1c0.1,0,0.2-0.2,0.2-0.4c0-0.1,0-0.3-0.1-0.4
			c0-0.1-0.1-0.2-0.1-0.4l-0.3-0.7h-2.5c-0.2,0.4-0.3,0.7-0.3,0.8c-0.1,0.2-0.1,0.4-0.1,0.6c0,0.2,0.1,0.3,0.3,0.3
			c0.2,0,0.4,0.1,0.6,0.1v0.3h-2.2L24.7,21.4z M28.8,19.1l-1-2.5h-0.1l-1,2.5H28.8z"/>
		<path id="Trazado_171" class="st0" d="M33.5,20.2c0.4-0.4,0.9-0.4,1.3,0s0.4,0.9,0,1.3s-0.9,0.4-1.3,0c-0.2-0.2-0.3-0.4-0.3-0.7
			C33.2,20.6,33.3,20.4,33.5,20.2z"/>
	</g>
	<g id="Grupo_153" transform="translate(0.162 110.127)">
		<path id="Trazado_172" class="st0" d="M17.7,15.8c1.1-1.2,2.6-1.8,4.2-1.7c0.7,0,1.4,0.1,2.1,0.4c0.4,0.2,0.8,0.3,1.3,0.4
			c0.2,0,0.3-0.1,0.4-0.2c0.1-0.2,0.2-0.4,0.3-0.6h0.5V18H26c-0.3-0.7-0.7-1.4-1.2-2c-0.6-0.8-1.6-1.3-2.6-1.3c-1,0-1.9,0.5-2.3,1.4
			c-0.6,1.2-0.8,2.6-0.7,3.9c0,1.3,0.2,2.5,0.7,3.7c0.4,1.1,1.5,1.7,2.6,1.6c0.5,0.1,1-0.1,1.4-0.4c0.2-0.2,0.2-0.5,0.2-0.8v-1.7
			c0.1-0.4-0.1-0.8-0.5-1c-0.4-0.1-0.8-0.2-1.2-0.2v-0.4H28v0.4c-0.4,0-0.8,0.1-1.1,0.3c-0.2,0.3-0.3,0.8-0.3,1.2v2.1
			c-0.6,0.3-1.2,0.5-1.8,0.7c-0.9,0.2-1.8,0.4-2.8,0.3c-1.7,0.1-3.3-0.6-4.4-1.7c-1-1.1-1.6-2.6-1.5-4.1
			C16,18.4,16.6,16.9,17.7,15.8z"/>
		<path id="Trazado_173" class="st0" d="M28.7,25.1c0.4,0,0.7-0.2,1-0.5c0.3-0.4,0.5-0.9,0.7-1.4L34,14h0.5l3.7,8.7
			c0.3,0.7,0.6,1.3,0.9,1.9c0.2,0.3,0.5,0.4,0.9,0.4v0.4h-5.4v-0.4c0.4,0,0.7,0,1.1-0.1c0.2-0.1,0.3-0.2,0.3-0.5
			c0-0.2-0.1-0.4-0.1-0.6c-0.1-0.2-0.1-0.3-0.2-0.6l-0.4-1h-3.7c-0.2,0.7-0.4,1.1-0.5,1.3c-0.1,0.3-0.2,0.6-0.2,0.9
			c0,0.2,0.2,0.4,0.5,0.5c0.3,0.1,0.6,0.1,0.9,0.1v0.4h-3.4V25.1z M34.9,21.6l-1.6-3.8h-0.1l-1.5,3.8H34.9z"/>
		<path id="Trazado_174" class="st0" d="M40.6,25.1c0.4,0,0.9-0.1,1.2-0.4c0.2-0.3,0.3-0.6,0.3-1v-7.9c-0.5-0.6-0.8-0.9-0.9-1
			c-0.1-0.1-0.3-0.2-0.5-0.2v-0.4h3.5l5.7,6.9H50v-4.9c0-0.4-0.1-0.8-0.3-1.2c-0.3-0.3-0.8-0.4-1.2-0.4v-0.4H52v0.4
			c-0.4,0-0.7,0.2-1,0.3c-0.2,0.3-0.3,0.6-0.3,1v9.8h-0.5l-7.3-8.9h-0.1v6.5c0,0.4,0,0.7,0.2,1.1c0.3,0.4,0.8,0.6,1.4,0.6v0.4h-3.8
			L40.6,25.1z"/>
		<path id="Trazado_175" class="st0" d="M52.7,25.1c0.4,0,0.7-0.2,1-0.5c0.3-0.4,0.5-0.9,0.7-1.4L58,14h0.5l3.7,8.7
			c0.3,0.7,0.6,1.3,0.9,1.9c0.2,0.3,0.5,0.4,0.9,0.4v0.4h-5.4v-0.4c0.4,0,0.7,0,1.1-0.1c0.2-0.1,0.3-0.2,0.3-0.5
			c0-0.2-0.1-0.4-0.1-0.6c-0.1-0.2-0.1-0.3-0.2-0.6l-0.4-1h-3.7c-0.2,0.7-0.4,1.1-0.5,1.3c-0.1,0.3-0.2,0.6-0.2,0.9
			c0,0.2,0.2,0.4,0.5,0.5c0.3,0.1,0.6,0.1,0.9,0.1v0.4h-3.4L52.7,25.1z M58.9,21.6l-1.6-3.8h-0.1l-1.5,3.8H58.9z"/>
		<path id="Trazado_176" class="st0" d="M64.6,25.1c0.3,0,0.6-0.1,0.9-0.2c0.3-0.2,0.5-0.5,0.5-0.9v-8.2c0-0.4-0.1-0.7-0.5-0.9
			c-0.3-0.1-0.6-0.2-0.9-0.2v-0.4h5.1c1.7-0.1,3.4,0.5,4.7,1.6c1,1.1,1.5,2.5,1.5,4c0,1.4-0.5,2.8-1.5,3.8c-1.2,1.2-2.8,1.8-4.5,1.8
			h-5.2L64.6,25.1z M68.9,24.7c0.2,0.2,0.5,0.3,0.7,0.2c0.9,0,1.8-0.4,2.4-1c0.6-0.7,0.9-2,0.9-4c0-1-0.1-2.1-0.5-3
			c-0.4-1.2-1.5-2.1-2.8-2c-0.4,0-0.7,0.1-0.8,0.3c-0.1,0.2-0.2,0.5-0.1,0.7V24C68.7,24.2,68.7,24.5,68.9,24.7z"/>
		<path id="Trazado_177" class="st0" d="M76.6,25.5v-0.4c0.3,0,0.7-0.1,1-0.2c0.3-0.2,0.5-0.6,0.5-1v-8c0-0.4-0.1-0.8-0.5-1
			c-0.3-0.1-0.7-0.2-1-0.2v-0.4h9.6v3.4h-0.4c-0.1-0.8-0.5-1.6-1.1-2.2c-0.8-0.5-1.8-0.7-2.8-0.6c-0.3,0-0.7,0-1,0.2
			c-0.2,0.2-0.2,0.4-0.2,0.6v3.8c0.7,0.1,1.4-0.1,1.9-0.5c0.4-0.6,0.7-1.2,0.8-1.9h0.4v5.6h-0.4c0-0.7-0.3-1.4-0.7-2
			c-0.6-0.4-1.3-0.7-2-0.6v4c0,0.3,0.1,0.5,0.3,0.7c0.3,0.2,0.7,0.2,1.1,0.2c0.9,0,1.8-0.2,2.6-0.6c0.8-0.6,1.4-1.4,1.8-2.3H87
			l-0.7,3.5L76.6,25.5z"/>
		<path id="Trazado_178" class="st0" d="M87.7,25.1c0.4,0,0.8-0.1,1.2-0.3c0.3-0.3,0.4-0.8,0.3-1.2v-7.3c0.1-0.5-0.1-0.9-0.4-1.3
			c-0.3-0.2-0.7-0.3-1.1-0.3v-0.4h5.3c0.9,0,1.8,0.1,2.7,0.3c1.2,0.3,2,1.3,2,2.5c0,0.8-0.4,1.6-1,2.1c-0.5,0.4-1.1,0.6-1.7,0.7
			l3.5,4.7c0.1,0.1,0.2,0.2,0.3,0.3c0.1,0,0.3,0.1,0.4,0.1v0.4h-3.5l-3.9-5.2h0v3.3c-0.2,0.6,0.2,1.3,0.8,1.5c0.2,0.1,0.4,0.1,0.6,0
			v0.4h-5.6V25.1z M94.2,19.3c0.5-0.3,0.7-1,0.7-2c0-0.5-0.1-1-0.3-1.5c-0.3-0.6-1-1-1.7-0.9c-0.3,0-0.6,0-0.9,0.2
			c-0.2,0.1-0.2,0.3-0.2,0.5v4.2C92.7,19.8,93.5,19.7,94.2,19.3L94.2,19.3z"/>
		<path id="Trazado_179" class="st0" d="M99.7,25.1c0.4,0,0.7-0.2,1-0.5c0.3-0.4,0.5-0.9,0.7-1.4l3.7-9.1h0.5l3.7,8.7
			c0.3,0.7,0.6,1.3,0.9,1.9c0.2,0.3,0.5,0.4,0.9,0.4v0.4h-5.4v-0.4c0.4,0,0.7,0,1.1-0.1c0.2-0.1,0.3-0.2,0.3-0.5
			c0-0.2-0.1-0.4-0.1-0.6c-0.1-0.2-0.1-0.3-0.2-0.6l-0.4-1h-3.7c-0.2,0.7-0.4,1.1-0.5,1.3c-0.1,0.3-0.2,0.6-0.2,0.9
			c0,0.2,0.2,0.4,0.5,0.5c0.3,0.1,0.6,0.1,0.9,0.1v0.4h-3.4L99.7,25.1z M106,21.6l-1.6-3.8h-0.1l-1.5,3.8H106z"/>
	</g>
	<g id="Grupo_154" transform="translate(19.261 0)">
		<path id="Trazado_180" class="st0" d="M72.9,53.6c-0.7-1.6-2.3-2.2-3.6-3.1C69.8,52.3,71.4,52.9,72.9,53.6z"/>
		<path id="Trazado_181" class="st0" d="M90.4,99.6H102v7c-4.4,4.9-10.8,7.8-17.4,7.8c-13.4,0-24.3-11.6-24.3-25.8
			s10.9-25.8,24.3-25.8c7.7,0.1,14.9,3.9,19.3,10.2h9.1C107.7,62.4,97,55,84.6,55c-2.1,0-4.2,0.2-6.2,0.6c0.1,1.2,1.6,4.3,1.8,5.1
			c0.2,0.5,0.1,1.1-0.3,1.4c0,0-0.1,0.1-0.3,0.3l0,0c-1.4,0.5-2,1-3.1,0.1c-1-0.9-2.3-1.4-3.7-1.4c-1.3,0.1-2.5-0.6-3.3-1.7
			c-0.8-1-1.3-2.2-1.6-3.4c-0.4-3.1-0.5-6.3-0.8-9.4c0-0.1,0.1-0.2,0.2-0.2c1.4,1.2,2.7,2.5,4.1,3.7s3,2.2,2.9,4.4
			c0,0.7,0.1,1.5,0.2,2.2c-0.8-0.4-1.5-0.7-2.2-1.1c-0.2-0.1-0.3-0.3-0.5-0.5c-0.5-0.5-1-0.9-1.6-1.3c-0.9-0.5-1.6,0-1.3,0.9
			c0.3,1.2,0.9,2.4,1.7,3.4c2.3,2.3,5.5,2.6,8.5,3.7c-0.4-1.1-0.7-1.9-0.9-2.8c-0.9-3.3-1.6-6.6-2.5-9.8c-0.5-1.9-1.7-3.5-3.3-4.5
			c-0.9-0.5-1.7-1.1-2.5-1.8c-1.7-1.7-3.3-3.4-4.9-5.1c-1-1.2-2.4-1.9-3.9-2c-1.1-0.1-2.2-0.1-3.3,0.1c-2.2,0.5-4.7,0.7-6.5,1.8
			c-2.9,1.7-4.7,4.7-5.9,8c-0.2,0.5-0.2,1.1,0,1.6c1.2,2.6,0.9,5.1-0.1,7.6c-0.2,0.8-0.4,1.6-0.5,2.4c1.5-0.2,2.8-0.3,4-0.4
			c1.3-0.1,2,0.7,2.1,2.1c0.2,1.2-0.6,2.3-1.8,2.4c0,0-0.1,0-0.1,0c-0.8,0.1-1.2-0.3-1-1c0.2-0.7,0.5-1.3,0.8-2h-5
			c0,1.1,0.1,2.2,0,3.2s-0.5,2.1,0.2,3.2c1.2-2.2,2.2-2.8,3.9-2c0.6,0.4,1.2,0.8,1.7,1.2c0.7,0.5,1.5,0.9,2.3,1.1
			c0.8,0.1,1.6-0.5,2.4-0.7c0.4,0,0.9,0,1.3,0c0,0.4-0.1,0.8-0.2,1.1c-0.7,1.1-2.1,1.6-3.3,1.1c-1.2-0.4-2.3-0.9-3.5-1.5
			c-2.1-1.1-2.1-1.1-3.5,0.7c0,0.1,0,0.1,0,0.5c1.1,0.6,2.3,1.2,3.5,1.9c1.1,0.4,2.1,1.2,2.8,2.2c0.1,0.2,0.2,0.4,0.3,0.6
			c0.2,0.7-0.1,1.4-0.7,1.8l0,0c-1.7,0.5-3.5,0.7-5.3,0.7c-12.1,0-21.9-11.6-21.9-25.8s9.8-25.8,21.9-25.8c6.7,0,12.7,3.6,16.7,9.2
			h9.1c-5.1-10.1-14.8-17-25.8-17c-16.4,0-29.7,15.1-29.7,33.6s13.3,33.6,29.7,33.6c2.6,0,5.3-0.4,7.8-1.2c-0.7,2.8-1,5.6-1,8.5
			c0,18.5,14.4,33.6,32.1,33.6c9.5,0,18.4-4.3,24.4-11.7l0.9-1.1V91.8H90.4L90.4,99.6z M61.3,45.9c2.6,0,3,0.5,3,0.5
			c-0.7,0.3-1.3,0.6-1.8,1.1c-0.3,0.4-0.9,1.9-4.2,1.3C58.3,48.7,58.6,45.9,61.3,45.9L61.3,45.9z"/>
	</g>
</g>
</svg>
